<svg height="496pt" viewBox="0 0 496 496" width="496pt" xmlns="http://www.w3.org/2000/svg"><path d="m488 480v-256c0-2.707031-1.371094-5.230469-3.640625-6.703125l-156.359375-101.640625v-67.65625c4.417969 0 8-3.582031 8-8v-32c0-4.417969-3.582031-8-8-8h-320c-4.417969 0-8 3.582031-8 8v32c0 4.417969 3.582031 8 8 8v432c-4.417969 0-8 3.582031-8 8s3.582031 8 8 8h480c4.417969 0 8-3.582031 8-8s-3.582031-8-8-8zm-16-251.664062v251.664062h-144v-345.257812zm-456-212.335938h304v16h-304zm8 32h288v432h-56v-112c4.417969 0 8-3.582031 8-8v-32c0-4.417969-3.582031-8-8-8h-176c-4.417969 0-8 3.582031-8 8v32c0 4.417969 3.582031 8 8 8v112h-56zm224 304h-160v-16h160zm-88 16v112h-64v-112zm16 0h64v112h-64zm0 0"/><path d="m384 416h32c4.417969 0 8-3.582031 8-8v-32c0-4.417969-3.582031-8-8-8h-32c-4.417969 0-8 3.582031-8 8v32c0 4.417969 3.582031 8 8 8zm8-32h16v16h-16zm0 0"/><path d="m384 344h32c4.417969 0 8-3.582031 8-8v-32c0-4.417969-3.582031-8-8-8h-32c-4.417969 0-8 3.582031-8 8v32c0 4.417969 3.582031 8 8 8zm8-32h16v16h-16zm0 0"/><path d="m384 272h32c4.417969 0 8-3.582031 8-8v-32c0-4.417969-3.582031-8-8-8h-32c-4.417969 0-8 3.582031-8 8v32c0 4.417969 3.582031 8 8 8zm8-32h16v16h-16zm0 0"/><path d="m216 288h32c4.417969 0 8-3.582031 8-8v-32c0-4.417969-3.582031-8-8-8h-32c-4.417969 0-8 3.582031-8 8v32c0 4.417969 3.582031 8 8 8zm8-32h16v16h-16zm0 0"/><path d="m216 208h32c4.417969 0 8-3.582031 8-8v-32c0-4.417969-3.582031-8-8-8h-32c-4.417969 0-8 3.582031-8 8v32c0 4.417969 3.582031 8 8 8zm8-32h16v16h-16zm0 0"/><path d="m216 128h32c4.417969 0 8-3.582031 8-8v-32c0-4.417969-3.582031-8-8-8h-32c-4.417969 0-8 3.582031-8 8v32c0 4.417969 3.582031 8 8 8zm8-32h16v16h-16zm0 0"/><path d="m152 288h32c4.417969 0 8-3.582031 8-8v-32c0-4.417969-3.582031-8-8-8h-32c-4.417969 0-8 3.582031-8 8v32c0 4.417969 3.582031 8 8 8zm8-32h16v16h-16zm0 0"/><path d="m152 208h32c4.417969 0 8-3.582031 8-8v-32c0-4.417969-3.582031-8-8-8h-32c-4.417969 0-8 3.582031-8 8v32c0 4.417969 3.582031 8 8 8zm8-32h16v16h-16zm0 0"/><path d="m152 128h32c4.417969 0 8-3.582031 8-8v-32c0-4.417969-3.582031-8-8-8h-32c-4.417969 0-8 3.582031-8 8v32c0 4.417969 3.582031 8 8 8zm8-32h16v16h-16zm0 0"/><path d="m88 288h32c4.417969 0 8-3.582031 8-8v-32c0-4.417969-3.582031-8-8-8h-32c-4.417969 0-8 3.582031-8 8v32c0 4.417969 3.582031 8 8 8zm8-32h16v16h-16zm0 0"/><path d="m88 208h32c4.417969 0 8-3.582031 8-8v-32c0-4.417969-3.582031-8-8-8h-32c-4.417969 0-8 3.582031-8 8v32c0 4.417969 3.582031 8 8 8zm8-32h16v16h-16zm0 0"/><path d="m88 128h32c4.417969 0 8-3.582031 8-8v-32c0-4.417969-3.582031-8-8-8h-32c-4.417969 0-8 3.582031-8 8v32c0 4.417969 3.582031 8 8 8zm8-32h16v16h-16zm0 0"/></svg>