<svg height="496pt" viewBox="0 0 496.00297 496" width="496pt" xmlns="http://www.w3.org/2000/svg"><path d="m488 479.871094h-24v-344h24c3.132812 0 5.976562-1.828125 7.28125-4.675782 1.300781-2.851562.820312-6.199218-1.234375-8.566406l-104-120c-1.5625-1.675781-3.753906-2.628906-6.046875-2.628906s-4.484375.953125-6.046875 2.628906l-104 120c-2.054687 2.367188-2.535156 5.714844-1.234375 8.566406 1.304688 2.847657 4.148438 4.675782 7.28125 4.675782h24v64h-240c-2.851562.003906-5.484375 1.527344-6.910156 4l-56 96c-1.429688 2.472656-1.429688 5.519531-.007813 7.992187 1.425781 2.472657 4.0625 4 6.917969 4.007813h56v168h-56c-4.417969 0-8 3.582031-8 8 0 4.417968 3.582031 8 8 8h480c4.417969 0 8-3.582032 8-8 0-4.417969-3.582031-8-8-8zm-104-459.785156 86.480469 99.785156h-172.960938zm64 115.785156v344h-128v-168h48c2.855469-.007813 5.492188-1.535156 6.917969-4.007813 1.421875-2.472656 1.421875-5.519531-.007813-7.992187l-54.910156-94.167969v-69.832031zm-379.40625 80h238.8125l46.664062 80h-332.140624zm11.40625 96h224v168h-56v-80c0-4.417969-3.582031-8-8-8h-96c-4.417969 0-8 3.582031-8 8v80h-56zm104 168h-32v-72h32zm16-72h32v72h-32zm0 0"/><path d="m392 375.871094h32c4.417969 0 8-3.582032 8-8v-48c0-4.417969-3.582031-8-8-8h-32c-4.417969 0-8 3.582031-8 8v48c0 4.417968 3.582031 8 8 8zm8-48h16v32h-16zm0 0"/><path d="m392 295.871094h32c4.417969 0 8-3.582032 8-8v-48c0-4.417969-3.582031-8-8-8h-32c-4.417969 0-8 3.582031-8 8v48c0 4.417968 3.582031 8 8 8zm8-48h16v32h-16zm0 0"/><path d="m392 215.871094h32c4.417969 0 8-3.582032 8-8v-48c0-4.417969-3.582031-8-8-8h-32c-4.417969 0-8 3.582031-8 8v48c0 4.417968 3.582031 8 8 8zm8-48h16v32h-16zm0 0"/><path d="m176 375.871094h32c4.417969 0 8-3.582032 8-8v-32c0-4.417969-3.582031-8-8-8h-32c-4.417969 0-8 3.582031-8 8v32c0 4.417968 3.582031 8 8 8zm8-32h16v16h-16zm0 0"/><path d="m144 375.871094c4.417969 0 8-3.582032 8-8v-32c0-4.417969-3.582031-8-8-8h-32c-4.417969 0-8 3.582031-8 8v32c0 4.417968 3.582031 8 8 8zm-24-32h16v16h-16zm0 0"/><path d="m240 375.871094h32c4.417969 0 8-3.582032 8-8v-32c0-4.417969-3.582031-8-8-8h-32c-4.417969 0-8 3.582031-8 8v32c0 4.417968 3.582031 8 8 8zm8-32h16v16h-16zm0 0"/></svg>