<svg height="495pt" viewBox="0 -71 495.99783 495" width="495pt" xmlns="http://www.w3.org/2000/svg"><path d="m40 296.5h416c4.417969 0 8-3.582031 8-8v-280c0-4.417969-3.582031-8-8-8h-416c-4.417969 0-8 3.582031-8 8v280c0 4.417969 3.582031 8 8 8zm8-280h400v264h-400zm0 0"/><path d="m424 32.5h-352c-4.417969 0-8 3.582031-8 8v216c0 4.417969 3.582031 8 8 8h352c4.417969 0 8-3.582031 8-8v-216c0-4.417969-3.582031-8-8-8zm-8 216h-336v-200h336zm0 0"/><path d="m392 120.5c-4.417969 0-8 3.582031-8 8v16c0 4.417969 3.582031 8 8 8s8-3.582031 8-8v-16c0-4.417969-3.582031-8-8-8zm0 0"/><path d="m352 80.5h32v24c0 4.417969 3.582031 8 8 8s8-3.582031 8-8v-32c0-4.417969-3.582031-8-8-8h-40c-4.417969 0-8 3.582031-8 8s3.582031 8 8 8zm0 0"/><path d="m494.398438 307.699219c-1.511719-2.015625-3.882813-3.199219-6.398438-3.199219h-189.90625c-2.253906 0-4.402344.949219-5.917969 2.613281-3.035156 3.421875-7.382812 5.378907-11.953125 5.386719h-64.449218c-4.570313-.007812-8.917969-1.964844-11.949219-5.386719-1.519531-1.664062-3.667969-2.613281-5.921875-2.613281h-189.902344c-2.511719 0-4.878906 1.179688-6.390625 3.1875-1.5117188 2.003906-1.992187 4.605469-1.296875 7.019531 6.527344 22.347657 26.988281 37.730469 50.269531 37.792969h394.832031c23.28125-.0625 43.742188-15.445312 50.273438-37.792969.691406-2.410156.214844-5.003906-1.289062-7.007812zm-48.984376 28.800781h-394.832031c-12.058593-.035156-23.328125-6.023438-30.101562-16h174.175781c5.839844 5.132812 13.34375 7.976562 21.117188 8h64.449218c7.777344-.023438 15.28125-2.867188 21.121094-8h174.175781c-6.777343 9.976562-18.042969 15.964844-30.105469 16zm0 0"/><path d="m168 144.5h24v80c0 4.417969 3.582031 8 8 8h96c4.417969 0 8-3.582031 8-8v-80h24c3.398438 0 6.425781-2.144531 7.550781-5.351562 1.125-3.207032.101563-6.773438-2.550781-8.898438l-80-64c-2.925781-2.339844-7.078125-2.339844-10 0l-80 64c-2.65625 2.125-3.679688 5.691406-2.554688 8.898438 1.125 3.207031 4.15625 5.351562 7.554688 5.351562zm88 72h-16v-24h16zm32 0h-16v-32c0-4.417969-3.582031-8-8-8h-32c-4.417969 0-8 3.582031-8 8v32h-16v-72h80zm-40-133.761719 57.191406 45.761719h-114.402344zm0 0"/></svg>