<svg height="496.00107pt" viewBox="0 0 496.00107 496.00107" width="496.00107pt" xmlns="http://www.w3.org/2000/svg"><path d="m488 480h-360v-352h88v24h-40c-4.417969 0-8 3.582031-8 8v208c0 4.417969 3.582031 8 8 8h280c4.417969 0 8-3.582031 8-8v-208c0-4.417969-3.582031-8-8-8h-40v-24h64c3.980469 0 7.355469-2.921875 7.921875-6.863281l8-56c.328125-2.296875-.355469-4.621094-1.875-6.375-1.519531-1.753907-3.726563-2.761719-6.046875-2.761719h-360v-48c0-2.320312-1.007812-4.523438-2.757812-6.042969-1.753907-1.523437-4.082032-2.207031-6.378907-1.8749998l-56 7.9999998c-3.9375.5625-6.863281 3.9375-6.863281 7.917969v40h-48c-4.417969 0-8 3.582031-8 8v56c0 4.417969 3.582031 8 8 8h48v352h-48c-4.417969 0-8 3.582031-8 8s3.582031 8 8 8h480c4.417969 0 8-3.582031 8-8s-3.582031-8-8-8zm-40-312v192h-264v-192zm-48-16h-168v-24h168zm78.777344-80-5.714844 40h-345.0625v-40zm-462.777344 40v-40h40v40zm56-89.0625 40-5.710938v462.773438h-40zm0 0"/><path d="m224 256c4.417969 0 8-3.582031 8-8v-16h16c4.417969 0 8-3.582031 8-8s-3.582031-8-8-8h-16v-8h16c4.417969 0 8-3.582031 8-8s-3.582031-8-8-8h-24c-4.417969 0-8 3.582031-8 8v48c0 4.417969 3.582031 8 8 8zm0 0"/><path d="m280 256h24c4.417969 0 8-3.582031 8-8v-48c0-4.417969-3.582031-8-8-8h-24c-4.417969 0-8 3.582031-8 8v48c0 4.417969 3.582031 8 8 8zm8-48h8v32h-8zm0 0"/><path d="m336 256c4.417969 0 8-3.582031 8-8v-9.597656l9.34375 14.015625c2.453125 3.675781 7.421875 4.667969 11.097656 2.214843 3.675782-2.453124 4.667969-7.417968 2.214844-11.097656l-7.710938-11.535156h1.054688c4.417969 0 8-3.582031 8-8v-24c0-4.417969-3.582031-8-8-8h-24c-4.417969 0-8 3.582031-8 8v48c0 4.417969 3.582031 8 8 8zm8-48h8v8h-8zm0 0"/><path d="m224 320c-4.417969 0-8 3.582031-8 8s3.582031 8 8 8h24c4.417969 0 8-3.582031 8-8v-24c0-4.417969-3.582031-8-8-8h-16v-8h16c4.417969 0 8-3.582031 8-8s-3.582031-8-8-8h-24c-4.417969 0-8 3.582031-8 8v24c0 4.417969 3.582031 8 8 8h16v8zm0 0"/><path d="m280 336c4.417969 0 8-3.582031 8-8v-16h8v16c0 4.417969 3.582031 8 8 8s8-3.582031 8-8v-48c0-4.417969-3.582031-8-8-8h-24c-4.417969 0-8 3.582031-8 8v48c0 4.417969 3.582031 8 8 8zm8-48h8v8h-8zm0 0"/><path d="m336 336h24c4.417969 0 8-3.582031 8-8s-3.582031-8-8-8h-16v-40c0-4.417969-3.582031-8-8-8s-8 3.582031-8 8v48c0 4.417969 3.582031 8 8 8zm0 0"/><path d="m384 336h24c4.417969 0 8-3.582031 8-8s-3.582031-8-8-8h-16v-8h16c4.417969 0 8-3.582031 8-8s-3.582031-8-8-8h-16v-8h16c4.417969 0 8-3.582031 8-8s-3.582031-8-8-8h-24c-4.417969 0-8 3.582031-8 8v48c0 4.417969 3.582031 8 8 8zm0 0"/></svg>