<svg height="496pt" viewBox="0 0 496 496" width="496pt" xmlns="http://www.w3.org/2000/svg"><path d="m64 152c-4.417969 0-8 3.582031-8 8s3.582031 8 8 8h112c4.417969 0 8-3.582031 8-8s-3.582031-8-8-8h-16v-48h16c3.34375-.003906 6.335938-2.089844 7.496094-5.226562 1.160156-3.140626.242187-6.667969-2.296875-8.84375l-56-48c-2.992188-2.5625-7.40625-2.5625-10.398438 0l-56 48c-2.539062 2.175781-3.457031 5.703124-2.296875 8.84375 1.160156 3.136718 4.152344 5.222656 7.496094 5.226562h16v48zm56-93.464844 34.398438 29.464844h-68.796876zm-24 45.464844h48v48h-48zm0 0"/><path d="m64 224h240c4.417969 0 8-3.582031 8-8s-3.582031-8-8-8h-240c-4.417969 0-8 3.582031-8 8s3.582031 8 8 8zm0 0"/><path d="m64 288h144c4.417969 0 8-3.582031 8-8s-3.582031-8-8-8h-144c-4.417969 0-8 3.582031-8 8s3.582031 8 8 8zm0 0"/><path d="m240 336h-176c-4.417969 0-8 3.582031-8 8s3.582031 8 8 8h176c4.417969 0 8-3.582031 8-8s-3.582031-8-8-8zm0 0"/><path d="m136 400h-72c-4.417969 0-8 3.582031-8 8s3.582031 8 8 8h72c4.417969 0 8-3.582031 8-8s-3.582031-8-8-8zm0 0"/><path d="m264 272h-32c-4.417969 0-8 3.582031-8 8s3.582031 8 8 8h32c4.417969 0 8-3.582031 8-8s-3.582031-8-8-8zm0 0"/><path d="m491.894531 121.601562-40.078125-23.785156c-1.824218-1.09375-4.007812-1.40625-6.0625-.871094-2.0625.519532-3.828125 1.835938-4.914062 3.664063l-72.839844 122.824219v-119.433594c-.007812-1.03125-.214844-2.046875-.609375-3-.1875-.367188-.402344-.71875-.648437-1.046875-.234376-.480469-.519532-.9375-.847657-1.359375l-88-96c-.039062-.042969-.09375-.058594-.132812-.097656-.589844-.570313-1.257813-1.050782-1.984375-1.425782-.21875-.109374-.386719-.300781-.609375-.40625-1-.433593-2.078125-.66015575-3.167969-.664062h-264c-4.417969 0-8 3.582031-8 8v480c0 4.417969 3.582031 8 8 8h352c4.417969 0 8-3.582031 8-8v-141.921875l126.695312-213.503906c1.085938-1.824219 1.402344-4.007813.878907-6.066407-.527344-2.058593-1.847657-3.824218-3.679688-4.90625zm-31.375 37.191407-127.152343 214.285156-6.121094-3.582031 127.152344-214.296875zm-158.199219 214.671875 18.824219 11-22.328125 14.984375zm11.105469-12.039063-6.402343-3.769531 127.175781-214.457031 6.457031 3.832031zm-33.425781-332.867187 61.816406 67.441406h-61.816406zm72 451.441406h-336v-464h248v88c0 4.417969 3.582031 8 8 8h80v136c.050781.609375.171875 1.210938.359375 1.792969l-63.238281 106.621093c-.214844.464844-.382813.945313-.496094 1.441407-.226562.492187-.402344 1.003906-.527344 1.527343l-7.503906 55.496094c-.429688 3.125 1.019531 6.207032 3.695312 7.875 2.675782 1.664063 6.078126 1.605469 8.695313-.152344l47.695313-32c.097656-.066406.144531-.1875.230468-.25.851563-.605468 1.578125-1.371093 2.136719-2.253906l.058594-.066406 8.894531-14.984375zm116.6875-334.953125-12.96875-7.695313-13.320312-7.917968 8.160156-13.761719 26.328125 15.625zm0 0"/></svg>